<svg width="627" height="159" viewBox="0 0 627 159" fill="none" xmlns="http://www.w3.org/2000/svg">
<path d="M95.3436 32.3141V61.7999H124.829V32.3141H95.3436Z" fill="#425C82"/>
<path d="M128.514 65.4851V94.971H158V65.4851H128.514Z" fill="#425C82"/>
<path d="M95.3436 65.4851V94.971H124.829V65.4851H95.3436Z" fill="#425C82"/>
<path d="M128.514 98.6572V128.143H158V98.6572H128.514Z" fill="#425C82"/>
<path d="M95.3436 98.6572V128.143H124.829V98.6572H95.3436Z" fill="#101010"/>
<path d="M62.171 98.6572V128.143H91.6569V98.6572H62.171Z" fill="#101010"/>
<path d="M29 98.6572L29 128.143H58.4858V98.6572H29Z" fill="#101010"/>
<path d="M62.171 65.4851V94.971H91.6569V65.4851H62.171Z" fill="#101010"/>
<path d="M253.25 126H249.125L242.5 116.812C240.875 118.271 239.146 119.646 237.312 120.938C235.521 122.188 233.625 123.292 231.625 124.25C229.625 125.167 227.562 125.896 225.438 126.438C223.354 126.979 221.229 127.25 219.062 127.25C214.354 127.25 209.917 126.375 205.75 124.625C201.625 122.833 198 120.375 194.875 117.25C191.792 114.083 189.354 110.354 187.562 106.062C185.771 101.729 184.875 97.0208 184.875 91.9375C184.875 86.8958 185.771 82.2083 187.562 77.875C189.354 73.5417 191.792 69.7917 194.875 66.625C198 63.4583 201.625 60.9792 205.75 59.1875C209.917 57.3958 214.354 56.5 219.062 56.5C220.562 56.5 222.104 56.625 223.688 56.875C225.312 57.125 226.875 57.5417 228.375 58.125C229.917 58.6667 231.354 59.3958 232.688 60.3125C234.021 61.2292 235.146 62.3542 236.062 63.6875V32.4375H253.25V126ZM236.062 91.9375C236.062 89.6042 235.604 87.3542 234.688 85.1875C233.812 82.9792 232.604 81.0417 231.062 79.375C229.521 77.6667 227.708 76.3125 225.625 75.3125C223.583 74.2708 221.396 73.75 219.062 73.75C216.729 73.75 214.521 74.1667 212.438 75C210.396 75.8333 208.604 77.0417 207.062 78.625C205.562 80.1667 204.375 82.0625 203.5 84.3125C202.625 86.5625 202.188 89.1042 202.188 91.9375C202.188 94.3958 202.625 96.7292 203.5 98.9375C204.375 101.146 205.562 103.083 207.062 104.75C208.604 106.417 210.396 107.729 212.438 108.688C214.521 109.646 216.729 110.125 219.062 110.125C221.396 110.125 223.583 109.625 225.625 108.625C227.708 107.583 229.521 106.229 231.062 104.562C232.604 102.854 233.812 100.917 234.688 98.75C235.604 96.5417 236.062 94.2708 236.062 91.9375Z" fill="#101010"/>
<path d="M292.938 109.625C293.604 109.833 294.271 109.979 294.938 110.062C295.604 110.104 296.271 110.125 296.938 110.125C298.604 110.125 300.208 109.896 301.75 109.438C303.292 108.979 304.729 108.333 306.062 107.5C307.438 106.625 308.646 105.583 309.688 104.375C310.771 103.125 311.646 101.75 312.312 100.25L324.812 112.812C323.229 115.062 321.396 117.083 319.312 118.875C317.271 120.667 315.042 122.188 312.625 123.438C310.25 124.688 307.729 125.625 305.062 126.25C302.438 126.917 299.729 127.25 296.938 127.25C292.229 127.25 287.792 126.375 283.625 124.625C279.5 122.875 275.875 120.438 272.75 117.312C269.667 114.188 267.229 110.479 265.438 106.188C263.646 101.854 262.75 97.1042 262.75 91.9375C262.75 86.6458 263.646 81.8125 265.438 77.4375C267.229 73.0625 269.667 69.3333 272.75 66.25C275.875 63.1667 279.5 60.7708 283.625 59.0625C287.792 57.3542 292.229 56.5 296.938 56.5C299.729 56.5 302.458 56.8333 305.125 57.5C307.792 58.1667 310.312 59.125 312.688 60.375C315.104 61.625 317.354 63.1667 319.438 65C321.521 66.7917 323.354 68.8125 324.938 71.0625L292.938 109.625ZM301.688 74.4375C300.896 74.1458 300.104 73.9583 299.312 73.875C298.562 73.7917 297.771 73.75 296.938 73.75C294.604 73.75 292.396 74.1875 290.312 75.0625C288.271 75.8958 286.479 77.1042 284.938 78.6875C283.438 80.2708 282.25 82.1875 281.375 84.4375C280.5 86.6458 280.062 89.1458 280.062 91.9375C280.062 92.5625 280.083 93.2708 280.125 94.0625C280.208 94.8542 280.312 95.6667 280.438 96.5C280.604 97.2917 280.792 98.0625 281 98.8125C281.208 99.5625 281.479 100.229 281.812 100.812L301.688 74.4375Z" fill="#101010"/>
<path d="M351.688 126L326.188 59.0625H345.625L360.25 100.812L374.812 59.0625H394.312L368.812 126H351.688Z" fill="#101010"/>
<path d="M425.438 109.625C426.104 109.833 426.771 109.979 427.438 110.062C428.104 110.104 428.771 110.125 429.438 110.125C431.104 110.125 432.708 109.896 434.25 109.438C435.792 108.979 437.229 108.333 438.562 107.5C439.938 106.625 441.146 105.583 442.188 104.375C443.271 103.125 444.146 101.75 444.812 100.25L457.312 112.812C455.729 115.062 453.896 117.083 451.812 118.875C449.771 120.667 447.542 122.188 445.125 123.438C442.75 124.688 440.229 125.625 437.562 126.25C434.938 126.917 432.229 127.25 429.438 127.25C424.729 127.25 420.292 126.375 416.125 124.625C412 122.875 408.375 120.438 405.25 117.312C402.167 114.188 399.729 110.479 397.938 106.188C396.146 101.854 395.25 97.1042 395.25 91.9375C395.25 86.6458 396.146 81.8125 397.938 77.4375C399.729 73.0625 402.167 69.3333 405.25 66.25C408.375 63.1667 412 60.7708 416.125 59.0625C420.292 57.3542 424.729 56.5 429.438 56.5C432.229 56.5 434.958 56.8333 437.625 57.5C440.292 58.1667 442.812 59.125 445.188 60.375C447.604 61.625 449.854 63.1667 451.938 65C454.021 66.7917 455.854 68.8125 457.438 71.0625L425.438 109.625ZM434.188 74.4375C433.396 74.1458 432.604 73.9583 431.812 73.875C431.062 73.7917 430.271 73.75 429.438 73.75C427.104 73.75 424.896 74.1875 422.812 75.0625C420.771 75.8958 418.979 77.1042 417.438 78.6875C415.938 80.2708 414.75 82.1875 413.875 84.4375C413 86.6458 412.562 89.1458 412.562 91.9375C412.562 92.5625 412.583 93.2708 412.625 94.0625C412.708 94.8542 412.812 95.6667 412.938 96.5C413.104 97.2917 413.292 98.0625 413.5 98.8125C413.708 99.5625 413.979 100.229 414.312 100.812L434.188 74.4375Z" fill="#101010"/>
<path d="M483.125 126H466.062V59.0625H470.188L475.812 65.5625C478.562 63.0625 481.667 61.1458 485.125 59.8125C488.625 58.4375 492.271 57.75 496.062 57.75C500.146 57.75 504 58.5417 507.625 60.125C511.25 61.6667 514.417 63.8125 517.125 66.5625C519.833 69.2708 521.958 72.4583 523.5 76.125C525.083 79.75 525.875 83.625 525.875 87.75V126H508.812V87.75C508.812 86 508.479 84.3542 507.812 82.8125C507.146 81.2292 506.229 79.8542 505.062 78.6875C503.896 77.5208 502.542 76.6042 501 75.9375C499.458 75.2708 497.812 74.9375 496.062 74.9375C494.271 74.9375 492.583 75.2708 491 75.9375C489.417 76.6042 488.042 77.5208 486.875 78.6875C485.708 79.8542 484.792 81.2292 484.125 82.8125C483.458 84.3542 483.125 86 483.125 87.75V126Z" fill="#101010"/>
<path d="M554.312 126L528.812 59.0625H548.25L562.875 100.812L577.438 59.0625H596.938L571.438 126H554.312Z" fill="#101010"/>
</svg>
