<svg width="480" height="480" viewBox="0 0 480 480" fill="none" xmlns="http://www.w3.org/2000/svg">
<path d="M245.308 31V110.692H325V31L245.308 31Z" fill="#425C82"/>
<path d="M334.962 120.654V200.346H414.654V120.654H334.962Z" fill="#425C82"/>
<path d="M245.308 120.654V200.346H325V120.654H245.308Z" fill="#425C82"/>
<path d="M334.962 210.308V290H414.654V210.308H334.962Z" fill="#425C82"/>
<path d="M245.308 210.308V290H325V210.308H245.308Z" fill="#101010"/>
<path d="M155.654 210.308V290H235.346V210.308H155.654Z" fill="#101010"/>
<path d="M66 210.308V290H145.692V210.308H66Z" fill="#101010"/>
<path d="M155.654 120.654V200.346H235.346V120.654H155.654Z" fill="#101010"/>
<path d="M104.25 416H100.125L93.5 406.812C91.875 408.271 90.1458 409.646 88.3125 410.938C86.5208 412.188 84.625 413.292 82.625 414.25C80.625 415.167 78.5625 415.896 76.4375 416.438C74.3542 416.979 72.2292 417.25 70.0625 417.25C65.3542 417.25 60.9167 416.375 56.75 414.625C52.625 412.833 49 410.375 45.875 407.25C42.7917 404.083 40.3542 400.354 38.5625 396.062C36.7708 391.729 35.875 387.021 35.875 381.938C35.875 376.896 36.7708 372.208 38.5625 367.875C40.3542 363.542 42.7917 359.792 45.875 356.625C49 353.458 52.625 350.979 56.75 349.188C60.9167 347.396 65.3542 346.5 70.0625 346.5C71.5625 346.5 73.1042 346.625 74.6875 346.875C76.3125 347.125 77.875 347.542 79.375 348.125C80.9167 348.667 82.3542 349.396 83.6875 350.312C85.0208 351.229 86.1458 352.354 87.0625 353.688V322.438H104.25V416ZM87.0625 381.938C87.0625 379.604 86.6042 377.354 85.6875 375.188C84.8125 372.979 83.6042 371.042 82.0625 369.375C80.5208 367.667 78.7083 366.312 76.625 365.312C74.5833 364.271 72.3958 363.75 70.0625 363.75C67.7292 363.75 65.5208 364.167 63.4375 365C61.3958 365.833 59.6042 367.042 58.0625 368.625C56.5625 370.167 55.375 372.062 54.5 374.312C53.625 376.562 53.1875 379.104 53.1875 381.938C53.1875 384.396 53.625 386.729 54.5 388.938C55.375 391.146 56.5625 393.083 58.0625 394.75C59.6042 396.417 61.3958 397.729 63.4375 398.688C65.5208 399.646 67.7292 400.125 70.0625 400.125C72.3958 400.125 74.5833 399.625 76.625 398.625C78.7083 397.583 80.5208 396.229 82.0625 394.562C83.6042 392.854 84.8125 390.917 85.6875 388.75C86.6042 386.542 87.0625 384.271 87.0625 381.938Z" fill="#101010"/>
<path d="M143.938 399.625C144.604 399.833 145.271 399.979 145.938 400.062C146.604 400.104 147.271 400.125 147.938 400.125C149.604 400.125 151.208 399.896 152.75 399.438C154.292 398.979 155.729 398.333 157.062 397.5C158.438 396.625 159.646 395.583 160.688 394.375C161.771 393.125 162.646 391.75 163.312 390.25L175.812 402.812C174.229 405.062 172.396 407.083 170.312 408.875C168.271 410.667 166.042 412.188 163.625 413.438C161.25 414.688 158.729 415.625 156.062 416.25C153.438 416.917 150.729 417.25 147.938 417.25C143.229 417.25 138.792 416.375 134.625 414.625C130.5 412.875 126.875 410.438 123.75 407.312C120.667 404.188 118.229 400.479 116.438 396.188C114.646 391.854 113.75 387.104 113.75 381.938C113.75 376.646 114.646 371.812 116.438 367.438C118.229 363.062 120.667 359.333 123.75 356.25C126.875 353.167 130.5 350.771 134.625 349.062C138.792 347.354 143.229 346.5 147.938 346.5C150.729 346.5 153.458 346.833 156.125 347.5C158.792 348.167 161.312 349.125 163.688 350.375C166.104 351.625 168.354 353.167 170.438 355C172.521 356.792 174.354 358.812 175.938 361.062L143.938 399.625ZM152.688 364.438C151.896 364.146 151.104 363.958 150.312 363.875C149.562 363.792 148.771 363.75 147.938 363.75C145.604 363.75 143.396 364.188 141.312 365.062C139.271 365.896 137.479 367.104 135.938 368.688C134.438 370.271 133.25 372.188 132.375 374.438C131.5 376.646 131.062 379.146 131.062 381.938C131.062 382.562 131.083 383.271 131.125 384.062C131.208 384.854 131.312 385.667 131.438 386.5C131.604 387.292 131.792 388.062 132 388.812C132.208 389.562 132.479 390.229 132.812 390.812L152.688 364.438Z" fill="#101010"/>
<path d="M202.688 416L177.188 349.062H196.625L211.25 390.812L225.812 349.062H245.312L219.812 416H202.688Z" fill="#101010"/>
<path d="M276.438 399.625C277.104 399.833 277.771 399.979 278.438 400.062C279.104 400.104 279.771 400.125 280.438 400.125C282.104 400.125 283.708 399.896 285.25 399.438C286.792 398.979 288.229 398.333 289.562 397.5C290.938 396.625 292.146 395.583 293.188 394.375C294.271 393.125 295.146 391.75 295.812 390.25L308.312 402.812C306.729 405.062 304.896 407.083 302.812 408.875C300.771 410.667 298.542 412.188 296.125 413.438C293.75 414.688 291.229 415.625 288.562 416.25C285.938 416.917 283.229 417.25 280.438 417.25C275.729 417.25 271.292 416.375 267.125 414.625C263 412.875 259.375 410.438 256.25 407.312C253.167 404.188 250.729 400.479 248.938 396.188C247.146 391.854 246.25 387.104 246.25 381.938C246.25 376.646 247.146 371.812 248.938 367.438C250.729 363.062 253.167 359.333 256.25 356.25C259.375 353.167 263 350.771 267.125 349.062C271.292 347.354 275.729 346.5 280.438 346.5C283.229 346.5 285.958 346.833 288.625 347.5C291.292 348.167 293.812 349.125 296.188 350.375C298.604 351.625 300.854 353.167 302.938 355C305.021 356.792 306.854 358.812 308.438 361.062L276.438 399.625ZM285.188 364.438C284.396 364.146 283.604 363.958 282.812 363.875C282.062 363.792 281.271 363.75 280.438 363.75C278.104 363.75 275.896 364.188 273.812 365.062C271.771 365.896 269.979 367.104 268.438 368.688C266.938 370.271 265.75 372.188 264.875 374.438C264 376.646 263.562 379.146 263.562 381.938C263.562 382.562 263.583 383.271 263.625 384.062C263.708 384.854 263.812 385.667 263.938 386.5C264.104 387.292 264.292 388.062 264.5 388.812C264.708 389.562 264.979 390.229 265.312 390.812L285.188 364.438Z" fill="#101010"/>
<path d="M334.125 416H317.062V349.062H321.188L326.812 355.562C329.562 353.062 332.667 351.146 336.125 349.812C339.625 348.438 343.271 347.75 347.062 347.75C351.146 347.75 355 348.542 358.625 350.125C362.25 351.667 365.417 353.812 368.125 356.562C370.833 359.271 372.958 362.458 374.5 366.125C376.083 369.75 376.875 373.625 376.875 377.75V416H359.812V377.75C359.812 376 359.479 374.354 358.812 372.812C358.146 371.229 357.229 369.854 356.062 368.688C354.896 367.521 353.542 366.604 352 365.938C350.458 365.271 348.812 364.938 347.062 364.938C345.271 364.938 343.583 365.271 342 365.938C340.417 366.604 339.042 367.521 337.875 368.688C336.708 369.854 335.792 371.229 335.125 372.812C334.458 374.354 334.125 376 334.125 377.75V416Z" fill="#101010"/>
<path d="M405.312 416L379.812 349.062H399.25L413.875 390.812L428.438 349.062H447.938L422.438 416H405.312Z" fill="#101010"/>
</svg>
